<svg id="Layer_1" data-name="Layer 1" xmlns="http://www.w3.org/2000/svg" viewBox="0 0 800 800"><defs><style>.cls-1{fill:#6eb1e1;}.cls-2{fill:#f1f3f7;}.cls-3{fill:#4f5565;}.cls-4{fill:#fffffc;}.cls-5{fill:#73c049;}.cls-6{fill:#f0582f;}.cls-7{fill:#fbd303;}.cls-8{fill:#71d456;}.cls-9{fill:#333842;}.cls-10{fill:#e3e5e8;}</style></defs><title>icon</title><circle class="cls-1" cx="400" cy="400" r="400"/><rect class="cls-2" x="133.96" y="170" width="532" height="460" rx="30" ry="30"/><path class="cls-3" d="M134,259.52v-60a30.09,30.09,0,0,1,30-30H636a30.09,30.09,0,0,1,30,30v60Z"/><rect class="cls-4" x="134" y="259" width="532" height="28"/><rect class="cls-5" x="134" y="259" width="264" height="28"/><rect class="cls-6" x="167.2" y="201.22" width="26.6" height="26.6" rx="13.3" ry="13.3"/><rect class="cls-7" x="213.09" y="201.22" width="26.6" height="26.6" rx="13.3" ry="13.3"/><rect class="cls-8" x="258.98" y="201.22" width="26.6" height="26.6" rx="13.3" ry="13.3"/><rect class="cls-9" x="310" y="202" width="316" height="26" rx="13" ry="13"/><rect class="cls-10" x="181.46" y="335" width="437" height="97" rx="12" ry="12"/><rect class="cls-10" x="181.46" y="459" width="437" height="24" rx="12" ry="12"/><rect class="cls-10" x="181.46" y="506.5" width="437" height="24" rx="12" ry="12"/><rect class="cls-10" x="290.71" y="554" width="218.5" height="24" rx="12" ry="12"/></svg>